<svg class="plot-d6a7b5" fill="currentColor" font-family="system-ui, sans-serif" font-size="10" text-anchor="middle" width="720" height="400" viewBox="0 0 720 400" style="font-size: 12px; font-family: ui-sans-serif, system-ui, sans-serif;" xmlns="http://www.w3.org/2000/svg"><style>:where(.plot-d6a7b5) {
  --plot-background: white;
  display: block;
  height: auto;
  height: intrinsic;
  max-width: 100%;
}
:where(.plot-d6a7b5 text),
:where(.plot-d6a7b5 tspan) {
  white-space: pre;
}</style><g aria-label="y-grid" aria-hidden="true" stroke="currentColor" stroke-opacity="0.1"><line x1="44" x2="600" y1="368" y2="368"></line><line x1="44" x2="600" y1="341.84615384615387" y2="341.84615384615387"></line><line x1="44" x2="600" y1="315.6923076923077" y2="315.6923076923077"></line><line x1="44" x2="600" y1="289.5384615384615" y2="289.5384615384615"></line><line x1="44" x2="600" y1="263.3846153846154" y2="263.3846153846154"></line><line x1="44" x2="600" y1="237.23076923076925" y2="237.23076923076925"></line><line x1="44" x2="600" y1="211.07692307692307" y2="211.07692307692307"></line><line x1="44" x2="600" y1="184.92307692307693" y2="184.92307692307693"></line><line x1="44" x2="600" y1="158.76923076923075" y2="158.76923076923075"></line><line x1="44" x2="600" y1="132.6153846153846" y2="132.6153846153846"></line><line x1="44" x2="600" y1="106.46153846153845" y2="106.46153846153845"></line><line x1="44" x2="600" y1="80.30769230769232" y2="80.30769230769232"></line><line x1="44" x2="600" y1="54.15384615384613" y2="54.15384615384613"></line><line x1="44" x2="600" y1="28" y2="28"></line></g><g aria-label="y-axis tick" aria-hidden="true" fill="none" stroke="currentColor"><path transform="translate(44,368)" d="M0,0L-6,0"></path><path transform="translate(44,341.84615384615387)" d="M0,0L-6,0"></path><path transform="translate(44,315.6923076923077)" d="M0,0L-6,0"></path><path transform="translate(44,289.5384615384615)" d="M0,0L-6,0"></path><path transform="translate(44,263.3846153846154)" d="M0,0L-6,0"></path><path transform="translate(44,237.23076923076925)" d="M0,0L-6,0"></path><path transform="translate(44,211.07692307692307)" d="M0,0L-6,0"></path><path transform="translate(44,184.92307692307693)" d="M0,0L-6,0"></path><path transform="translate(44,158.76923076923075)" d="M0,0L-6,0"></path><path transform="translate(44,132.6153846153846)" d="M0,0L-6,0"></path><path transform="translate(44,106.46153846153845)" d="M0,0L-6,0"></path><path transform="translate(44,80.30769230769232)" d="M0,0L-6,0"></path><path transform="translate(44,54.15384615384613)" d="M0,0L-6,0"></path><path transform="translate(44,28)" d="M0,0L-6,0"></path></g><g aria-label="y-axis tick label" text-anchor="end" font-variant="tabular-nums" transform="translate(-9,0)"><text y="0.32em" transform="translate(44,368)">0</text><text y="0.32em" transform="translate(44,341.84615384615387)">10</text><text y="0.32em" transform="translate(44,315.6923076923077)">20</text><text y="0.32em" transform="translate(44,289.5384615384615)">30</text><text y="0.32em" transform="translate(44,263.3846153846154)">40</text><text y="0.32em" transform="translate(44,237.23076923076925)">50</text><text y="0.32em" transform="translate(44,211.07692307692307)">60</text><text y="0.32em" transform="translate(44,184.92307692307693)">70</text><text y="0.32em" transform="translate(44,158.76923076923075)">80</text><text y="0.32em" transform="translate(44,132.6153846153846)">90</text><text y="0.32em" transform="translate(44,106.46153846153845)">100</text><text y="0.32em" transform="translate(44,80.30769230769232)">110</text><text y="0.32em" transform="translate(44,54.15384615384613)">120</text><text y="0.32em" transform="translate(44,28)">130</text></g><g aria-label="y-axis label" text-anchor="start" transform="translate(-41,-25)"><text y="0.71em" transform="translate(44,28)">Gross public debt, % of GDP</text></g><g aria-label="x-axis tick" aria-hidden="true" fill="none" stroke="currentColor"><path transform="translate(144.73766558881817,368)" d="M0,0L0,6"></path><path transform="translate(250.6369041410243,368)" d="M0,0L0,6"></path><path transform="translate(356.53614269323043,368)" d="M0,0L0,6"></path><path transform="translate(462.43538124543653,368)" d="M0,0L0,6"></path><path transform="translate(568.3926149994785,368)" d="M0,0L0,6"></path></g><g aria-label="x-axis tick label" font-variant="tabular-nums" transform="translate(0,9)"><text y="0.71em" transform="translate(144.73766558881817,368)">2005</text><text y="0.71em" transform="translate(250.6369041410243,368)">2010</text><text y="0.71em" transform="translate(356.53614269323043,368)">2015</text><text y="0.71em" transform="translate(462.43538124543653,368)">2020</text><text y="0.71em" transform="translate(568.3926149994785,368)">2025</text></g><g aria-label="rule" stroke="#111827"><line x1="44" x2="600" y1="368" y2="368"></line></g><g aria-label="line" fill="none" stroke="#2563eb" stroke-width="2" stroke-linejoin="round" stroke-linecap="round"><path d="M44,209.769L49.278,210.031L54.613,211.6L59.949,211.862L65.168,214.477L70.446,212.123L75.781,211.862L81.117,212.908L86.336,212.123L91.614,208.723L96.95,209.246L102.285,207.677L107.505,204.015L112.782,198.262L118.118,196.954L123.453,196.954L128.731,195.646L134.009,191.985L139.344,192.769L144.68,193.031L149.899,190.677L155.177,189.631L160.512,190.415L165.848,189.631L171.067,189.892L176.345,192.769L181.681,193.031L187.016,196.954L192.236,194.077L197.513,191.723L202.849,193.292L208.184,196.692L213.462,193.292L218.74,191.985L224.075,190.677L229.411,185.446L234.63,172.631L239.908,159.292L245.243,152.231L250.579,148.046L255.798,143.338L261.076,137.062L266.412,142.031L271.747,142.292L276.967,138.631L282.244,134.708L287.58,136.8L292.915,136.015L298.193,129.477L303.471,125.815L308.806,129.215L314.142,128.169L319.361,123.985L324.639,120.062L329.974,122.154L335.31,120.585L340.529,116.662L345.807,115.092L351.143,115.615L356.478,116.4L361.698,111.692L366.975,111.169L372.311,112.477L377.646,114.308L382.924,109.338L388.202,106.723L393.537,108.554L398.873,111.431L404.092,104.369L409.37,103.323L414.705,105.938L420.041,109.6L425.26,108.815L430.538,108.554L435.874,108.031L441.209,110.385L446.429,108.292L451.706,109.077L457.042,106.723L462.377,111.169L467.655,103.323L472.933,72.462L478.268,66.708L483.604,67.492L488.823,59.908L494.101,68.277L499.436,65.662L504.772,72.985L509.991,68.538L515.269,72.2L520.605,71.677L525.94,76.646L531.16,74.815L536.437,77.169L541.773,78.215L547.108,81.615L552.386,80.308L557.664,76.123L562.999,72.2L568.335,73.508L573.554,71.415L578.832,66.708L584.167,62L589.503,65.4L594.722,60.692L600,56.769"></path></g><g aria-label="dot" fill="#2563eb"><circle cx="44" cy="209.76923076923077" r="3.5"></circle><circle cx="229.41066026911443" cy="185.44615384615383" r="3.5"></circle><circle cx="462.3773860436007" cy="111.16923076923075" r="3.5"></circle><circle cx="478.2680713466152" cy="66.7076923076923" r="3.5"></circle></g><g aria-label="text" fill="#111827" text-anchor="start" transform="translate(0,16)"><text y="0.32em" transform="translate(44,209.76923076923077)">2000-Q1: 60.5%</text></g><g aria-label="text" fill="#111827" text-anchor="end" transform="translate(-4,-14)"><text y="0.32em" transform="translate(229.41066026911443,185.44615384615383)">2008-Q4: 69.8%</text></g><g aria-label="text" fill="#111827" text-anchor="start" transform="translate(4,16)"><text y="0.32em" transform="translate(462.3773860436007,111.16923076923075)">2019-Q4: 98.2%</text></g><g aria-label="text" fill="#111827" text-anchor="end" transform="translate(-4,-14)"><text y="0.32em" transform="translate(478.2680713466152,66.7076923076923)">2020-Q3: 115.2%</text></g><g aria-label="dot" fill="#dc2626"><circle cx="600" cy="56.769230769230774" r="4.5"></circle></g><g aria-label="text" fill="#dc2626" text-anchor="start" font-weight="bold" transform="translate(8,0)"><text transform="translate(600,56.769230769230774)"><tspan x="0" y="-0.18em">2026-Q2: 119.0%</tspan><tspan x="0" dy="1em">€3,595.5bn</tspan></text></g></svg>
