<svg class="plot-d6a7b5" fill="currentColor" font-family="system-ui, sans-serif" font-size="10" text-anchor="middle" width="720" height="320" viewBox="0 0 720 320" style="font-size: 12px; font-family: ui-sans-serif, system-ui, sans-serif;" xmlns="http://www.w3.org/2000/svg"><style>:where(.plot-d6a7b5) {
  --plot-background: white;
  display: block;
  height: auto;
  height: intrinsic;
  max-width: 100%;
}
:where(.plot-d6a7b5 text),
:where(.plot-d6a7b5 tspan) {
  white-space: pre;
}</style><g aria-label="y-axis tick" aria-hidden="true" fill="none" stroke="currentColor" transform="translate(0,14)"><path transform="translate(120,78)" d="M0,0L-6,0"></path><path transform="translate(120,118)" d="M0,0L-6,0"></path><path transform="translate(120,158)" d="M0,0L-6,0"></path><path transform="translate(120,198)" d="M0,0L-6,0"></path><path transform="translate(120,238)" d="M0,0L-6,0"></path></g><g aria-label="y-axis tick label" text-anchor="end" transform="translate(-9,14)"><text y="0.32em" transform="translate(120,78)">France</text><text y="0.32em" transform="translate(120,118)">Italy</text><text y="0.32em" transform="translate(120,158)">EU27 (aggregate)</text><text y="0.32em" transform="translate(120,198)">Germany</text><text y="0.32em" transform="translate(120,238)">Spain</text></g><g aria-label="x-grid" aria-hidden="true" stroke="currentColor" stroke-opacity="0.1"><line x1="147.6190476190476" x2="147.6190476190476" y1="64" y2="280"></line><line x1="258.0952380952381" x2="258.0952380952381" y1="64" y2="280"></line><line x1="368.57142857142856" x2="368.57142857142856" y1="64" y2="280"></line><line x1="479.0476190476191" x2="479.0476190476191" y1="64" y2="280"></line><line x1="589.5238095238095" x2="589.5238095238095" y1="64" y2="280"></line><line x1="700" x2="700" y1="64" y2="280"></line></g><g aria-label="x-axis tick" aria-hidden="true" fill="none" stroke="currentColor"><path transform="translate(147.6190476190476,280)" d="M0,0L0,6"></path><path transform="translate(258.0952380952381,280)" d="M0,0L0,6"></path><path transform="translate(368.57142857142856,280)" d="M0,0L0,6"></path><path transform="translate(479.0476190476191,280)" d="M0,0L0,6"></path><path transform="translate(589.5238095238095,280)" d="M0,0L0,6"></path><path transform="translate(700,280)" d="M0,0L0,6"></path></g><g aria-label="x-axis tick label" font-variant="tabular-nums" transform="translate(0,9)"><text y="0.71em" transform="translate(147.6190476190476,280)">−6</text><text y="0.71em" transform="translate(258.0952380952381,280)">−4</text><text y="0.71em" transform="translate(368.57142857142856,280)">−2</text><text y="0.71em" transform="translate(479.0476190476191,280)">0</text><text y="0.71em" transform="translate(589.5238095238095,280)">2</text><text y="0.71em" transform="translate(700,280)">4</text></g><g aria-label="x-axis label" transform="translate(0,37)"><text transform="translate(410,280)">% of GDP, 2025 (negative = deficit)</text></g><g aria-label="text" fill="#111827" text-anchor="start" font-size="13" font-weight="bold" transform="translate(-112,-48)"><text y="0.71em" transform="translate(120,64)">Most of France's deficit is there before interest is paid</text></g><g aria-label="text" fill="#9ca3af" text-anchor="start" transform="translate(-112,-30)"><text y="0.71em" transform="translate(120,64)">2025 balance: primary balance (before interest) and interest paid, % of GDP (Eurostat)</text></g><g aria-label="bar"><rect x="318.8571428571429" width="160.1904761904762" y="78" height="28" fill="#2563eb"></rect><rect x="197.33333333333337" width="121.52380952380952" y="78" height="28" fill="#dc2626"></rect><rect x="479.0476190476191" width="44.19047619047609" y="118" height="28" fill="#2563eb"></rect><rect x="263.6190476190476" width="215.4285714285715" y="118" height="28" fill="#dc2626"></rect><rect x="412.76190476190476" width="66.28571428571433" y="158" height="28" fill="#2563eb"></rect><rect x="307.80952380952385" width="104.9523809523809" y="158" height="28" fill="#dc2626"></rect><rect x="390.6666666666667" width="88.38095238095241" y="198" height="28" fill="#2563eb"></rect><rect x="329.90476190476187" width="60.761904761904816" y="198" height="28" fill="#dc2626"></rect><rect x="479.0476190476191" width="0" y="238" height="28" fill="#2563eb"></rect><rect x="346.4761904761905" width="132.5714285714286" y="238" height="28" fill="#dc2626"></rect></g><g aria-label="rule" stroke="#111827"><line x1="479.0476190476191" x2="479.0476190476191" y1="64" y2="280"></line></g><g aria-label="text" fill="white" font-weight="bold" transform="translate(0,14)"><text y="0.32em" transform="translate(398.9523809523809,78)">2.9</text><text y="0.32em" transform="translate(445.90476190476187,158)">1.2</text><text y="0.32em" transform="translate(434.8571428571429,198)">1.6</text></g><g aria-label="text" fill="#2563eb" text-anchor="start" font-weight="bold" transform="translate(6,14)"><text y="0.32em" transform="translate(523.2380952380952,118)">surplus 0.8</text><text y="0.32em" transform="translate(479.0476190476191,238)">0.0</text></g><g aria-label="text" fill="white" font-weight="bold" transform="translate(0,14)"><text y="0.32em" transform="translate(258.0952380952381,78)">2.2</text><text y="0.32em" transform="translate(371.3333333333333,118)">3.9</text><text y="0.32em" transform="translate(360.2857142857143,158)">1.9</text><text y="0.32em" transform="translate(360.2857142857143,198)">1.1</text><text y="0.32em" transform="translate(412.76190476190476,238)">2.4</text></g><g aria-label="text" fill="#111827" text-anchor="end" transform="translate(-6,14)"><text y="0.32em" transform="translate(197.33333333333337,78)">total 5.1</text><text y="0.32em" transform="translate(263.6190476190476,118)">total 3.1</text><text y="0.32em" transform="translate(307.80952380952385,158)">total 3.1</text><text y="0.32em" transform="translate(329.90476190476187,198)">total 2.7</text><text y="0.32em" transform="translate(346.4761904761905,238)">total 2.4</text></g><g aria-label="text" fill="#2563eb" font-weight="bold" transform="translate(0,-2)"><text y="0.32em" transform="translate(398.9523809523809,78)">Before interest</text></g><g aria-label="text" fill="#dc2626" font-weight="bold" transform="translate(0,-2)"><text y="0.32em" transform="translate(258.0952380952381,78)">Interest</text></g><g aria-label="text" fill="#dc2626" text-anchor="start" transform="translate(8,14)"><text transform="translate(479.0476190476191,78)"><tspan x="0" y="-0.216em">French interest paid:</tspan><tspan x="0" dy="1.2em">€29.7bn (2020) → €66.6bn (2025)</tspan></text></g></svg>
