<svg class="plot-d6a7b5" fill="currentColor" font-family="system-ui, sans-serif" font-size="10" text-anchor="middle" width="700" height="400" viewBox="0 0 700 400" xmlns="http://www.w3.org/2000/svg"><style>:where(.plot-d6a7b5) {
  --plot-background: white;
  display: block;
  height: auto;
  height: intrinsic;
  max-width: 100%;
}
:where(.plot-d6a7b5 text),
:where(.plot-d6a7b5 tspan) {
  white-space: pre;
}</style><g aria-label="y-axis tick" aria-hidden="true" fill="none" stroke="currentColor"><path transform="translate(40,338.4308062522824)" d="M0,0L-6,0"></path><path transform="translate(40,300.14824004980323)" d="M0,0L-6,0"></path><path transform="translate(40,261.865673847324)" d="M0,0L-6,0"></path><path transform="translate(40,223.58310764484472)" d="M0,0L-6,0"></path><path transform="translate(40,185.3005414423655)" d="M0,0L-6,0"></path><path transform="translate(40,147.01797523988623)" d="M0,0L-6,0"></path><path transform="translate(40,108.73540903740698)" d="M0,0L-6,0"></path><path transform="translate(40,70.45284283492774)" d="M0,0L-6,0"></path><path transform="translate(40,32.17027663244845)" d="M0,0L-6,0"></path></g><g aria-label="y-axis tick label" text-anchor="end" font-variant="tabular-nums" transform="translate(-9,0)"><text y="0.32em" transform="translate(40,338.4308062522824)">1,000,000</text><text y="0.32em" transform="translate(40,300.14824004980323)">2,000,000</text><text y="0.32em" transform="translate(40,261.865673847324)">3,000,000</text><text y="0.32em" transform="translate(40,223.58310764484472)">4,000,000</text><text y="0.32em" transform="translate(40,185.3005414423655)">5,000,000</text><text y="0.32em" transform="translate(40,147.01797523988623)">6,000,000</text><text y="0.32em" transform="translate(40,108.73540903740698)">7,000,000</text><text y="0.32em" transform="translate(40,70.45284283492774)">8,000,000</text><text y="0.32em" transform="translate(40,32.17027663244845)">9,000,000</text></g><g aria-label="y-axis label" text-anchor="start" transform="translate(-37,-17)"><text y="0.71em" transform="translate(40,20)">↑ value</text></g><g aria-label="x-axis tick" aria-hidden="true" fill="none" stroke="currentColor"><path transform="translate(40,370)" d="M0,0L0,6"></path><path transform="translate(146.66666666666666,370)" d="M0,0L0,6"></path><path transform="translate(253.33333333333331,370)" d="M0,0L0,6"></path><path transform="translate(360,370)" d="M0,0L0,6"></path><path transform="translate(466.66666666666663,370)" d="M0,0L0,6"></path><path transform="translate(573.3333333333334,370)" d="M0,0L0,6"></path><path transform="translate(680,370)" d="M0,0L0,6"></path></g><g aria-label="x-axis tick label" font-variant="tabular-nums" transform="translate(0,9)"><text y="0.71em" transform="translate(40,370)">1,995</text><text y="0.71em" transform="translate(146.66666666666666,370)">2,000</text><text y="0.71em" transform="translate(253.33333333333331,370)">2,005</text><text y="0.71em" transform="translate(360,370)">2,010</text><text y="0.71em" transform="translate(466.66666666666663,370)">2,015</text><text y="0.71em" transform="translate(573.3333333333334,370)">2,020</text><text y="0.71em" transform="translate(680,370)">2,025</text></g><g aria-label="x-axis label" text-anchor="end" transform="translate(17,27)"><text transform="translate(680,370)">year →</text></g><g aria-label="line" fill="none" stroke-width="1.5" stroke-linejoin="round" stroke-linecap="round"><path stroke="#4269d0" d="M40,334.775L61.333,339.239L82.667,340.158L104,339.579L125.333,338.156L146.667,337.533L168,336.661L189.333,335.65L210.667,335.096L232,335.48L253.333,334.986L274.667,334.63L296,334.339L317.333,332.678L338.667,330.59L360,328.527L381.333,329.087L402.667,328.381L424,327.153L445.333,325.861L466.667,324.14L488,321.998L509.333,319.881L530.667,318.014L552,315.055L573.333,309.191L594.667,305.285L616,302.476L637.333,298.945L658.667,294.8L680,290.22"></path><path stroke="#4269d0" d="M40,341.939L61.333,341.99L82.667,342.428L104,341.617L125.333,339.64L146.667,338.931L168,339.287L189.333,339.128L210.667,338.381L232,338.483L253.333,337.987L274.667,336.261L296,334.188L317.333,332.938L338.667,333.622L360,332.953L381.333,329.971L402.667,328.44L424,327.018L445.333,325.026L466.667,323.059L488,320.611L509.333,318.175L530.667,315.538L552,313.258L573.333,314.977L594.667,309.75L616,305.39L637.333,302.974L658.667,299.213L680,294.781"></path><path stroke="#efb118" d="M40,368.778L61.333,368.409L82.667,368.446L104,368.042L125.333,367.611L146.667,367.018L168,366.408L189.333,365.63L210.667,364.93L232,363.94L253.333,363.055L274.667,361.946L296,360.552L317.333,359.111L338.667,357.788L360,357.809L381.333,357.92L402.667,357.192L424,358.59L445.333,358.803L466.667,358.533L488,358.617L509.333,358.341L530.667,357.45L552,356.547L573.333,354.503L594.667,353.318L616,352.323L637.333,350.673L658.667,348.958L680,347.432"></path><path stroke="#efb118" d="M40,370L61.333,369.545L82.667,369.215L104,368.598L125.333,367.893L146.667,367.306L168,366.53L189.333,365.72L210.667,365.045L232,363.976L253.333,362.618L274.667,361.129L296,359.775L317.333,361.053L338.667,362.404L360,361.721L381.333,361.885L402.667,361.751L424,361.531L445.333,361.204L466.667,360.725L488,360.431L509.333,359.716L530.667,358.634L552,358.018L573.333,358.787L594.667,356.464L616,354.739L637.333,352.588L658.667,350.921L680,348.976"></path><path stroke="#ff725c" d="M40,246.825L61.333,246.84L82.667,246.763L104,243.925L125.333,238.948L146.667,233.551L168,226.798L189.333,220.143L210.667,214.698L232,209.812L253.333,203.116L274.667,195.595L296,187.451L317.333,176.415L338.667,169.356L360,162.398L381.333,161.567L402.667,157.411L424,154.968L445.333,152.947L466.667,149.18L488,146.781L509.333,139.912L530.667,133.17L552,124.661L573.333,101.584L594.667,86.999L616,72.434L637.333,53.455L658.667,37.647L680,20"></path><path stroke="#ff725c" d="M40,264.259L61.333,257.754L82.667,254.675L104,250.424L125.333,243.213L146.667,237.213L168,232.965L189.333,229.243L210.667,225.255L232,219.438L253.333,211.891L274.667,201.169L296,189.813L317.333,185.322L338.667,194.066L360,187.852L381.333,179.342L402.667,173.767L424,168.655L445.333,164.051L466.667,158.146L488,153.353L509.333,144.274L530.667,135.239L552,127.143L573.333,136.383L594.667,113.169L616,91.956L637.333,76.149L658.667,59.166L680,42.116"></path><path stroke="#6cc5b0" d="M40,350.529L61.333,349.698L82.667,349.498L104,349.069L125.333,348.055L146.667,347.031L168,345.772L189.333,344.131L210.667,342.956L232,341.65L253.333,340.11L274.667,338.728L296,336.927L317.333,335.36L338.667,333.737L360,332.613L381.333,331.704L402.667,330.432L424,329.153L445.333,328.567L466.667,328.171L488,327.687L509.333,326.125L530.667,325.888L552,325.179L573.333,321.956L594.667,319.619L616,317.363L637.333,315.145L658.667,312.678L680,311.092"></path><path stroke="#6cc5b0" d="M40,352.917L61.333,351.577L82.667,351.316L104,350.294L125.333,348.88L146.667,347.772L168,346.603L189.333,346.05L210.667,345.495L232,343.959L253.333,342.476L274.667,340.606L296,339.145L317.333,338.028L338.667,339.205L360,338.079L381.333,335.892L402.667,334.566L424,333.161L445.333,332.338L466.667,331.451L488,330.904L509.333,329.075L530.667,327.979L552,327.408L573.333,329.883L594.667,325.942L616,322.182L637.333,320.961L658.667,319.152L680,316.93"></path><path stroke="#3ca951" d="M40,358.98L61.333,356.356L82.667,355.96L104,355.82L125.333,355.491L146.667,354.618L168,353.102L189.333,352.587L210.667,351.551L232,350.677L253.333,349.71L274.667,348.313L296,347.782L317.333,346.666L338.667,345.753L360,345.868L381.333,345.607L402.667,345.157L424,345.121L445.333,344.953L466.667,344.721L488,344.746L509.333,344.134L530.667,343.828L552,343.27L573.333,340.41L594.667,337.186L616,334.693L637.333,332.723L658.667,334.227L680,332.485"></path><path stroke="#3ca951" d="M40,361.462L61.333,358.975L82.667,357.214L104,357.119L125.333,356.291L146.667,355.771L168,354.695L189.333,354.081L210.667,353.28L232,352.608L253.333,352.062L274.667,350.466L296,348.605L317.333,348.292L338.667,348.82L360,348.446L381.333,347.843L402.667,347.023L424,346.905L445.333,346.718L466.667,346.287L488,346.315L509.333,345.81L530.667,345.32L552,344.271L573.333,346.406L594.667,343.446L616,340.89L637.333,338.576L658.667,337.052L680,335.141"></path></g></svg>
