<svg class="plot-d6a7b5" fill="currentColor" font-family="system-ui, sans-serif" font-size="10" text-anchor="middle" width="720" height="380" viewBox="0 0 720 380" style="font-size: 12px; font-family: ui-sans-serif, system-ui, sans-serif;" xmlns="http://www.w3.org/2000/svg"><style>:where(.plot-d6a7b5) {
  --plot-background: white;
  display: block;
  height: auto;
  height: intrinsic;
  max-width: 100%;
}
:where(.plot-d6a7b5 text),
:where(.plot-d6a7b5 tspan) {
  white-space: pre;
}</style><g aria-label="y-axis tick label" text-anchor="end" transform="translate(-9,16.5)"><text y="0.32em" transform="translate(180,44)">Heat</text><text y="0.32em" transform="translate(180,81)">Tornado</text><text y="0.32em" transform="translate(180,118)">Flash flood</text><text y="0.32em" transform="translate(180,155)">Tropical storm / hurricane</text><text y="0.32em" transform="translate(180,192)">Rip current</text><text y="0.32em" transform="translate(180,229)">Lightning</text><text y="0.32em" transform="translate(180,266)">Cold</text><text y="0.32em" transform="translate(180,303)">Thunderstorm wind</text></g><g aria-label="x-grid" aria-hidden="true" stroke="currentColor" stroke-opacity="0.1"><line x1="180" x2="180" y1="40" y2="340"></line><line x1="245" x2="245" y1="40" y2="340"></line><line x1="310" x2="310" y1="40" y2="340"></line><line x1="375" x2="375" y1="40" y2="340"></line><line x1="440" x2="440" y1="40" y2="340"></line><line x1="505" x2="505" y1="40" y2="340"></line><line x1="570" x2="570" y1="40" y2="340"></line></g><g aria-label="x-axis tick" aria-hidden="true" fill="none" stroke="currentColor"><path transform="translate(180,340)" d="M0,0L0,6"></path><path transform="translate(245,340)" d="M0,0L0,6"></path><path transform="translate(310,340)" d="M0,0L0,6"></path><path transform="translate(375,340)" d="M0,0L0,6"></path><path transform="translate(440,340)" d="M0,0L0,6"></path><path transform="translate(505,340)" d="M0,0L0,6"></path><path transform="translate(570,340)" d="M0,0L0,6"></path></g><g aria-label="x-axis tick label" font-variant="tabular-nums" transform="translate(0,9)"><text y="0.71em" transform="translate(180,340)">0</text><text y="0.71em" transform="translate(245,340)">1,000</text><text y="0.71em" transform="translate(310,340)">2,000</text><text y="0.71em" transform="translate(375,340)">3,000</text><text y="0.71em" transform="translate(440,340)">4,000</text><text y="0.71em" transform="translate(505,340)">5,000</text><text y="0.71em" transform="translate(570,340)">6,000</text></g><g aria-label="x-axis label" text-anchor="end" transform="translate(147,37)"><text transform="translate(570,340)">Deaths, 1997–2025, as attributed by the NWS</text></g><g aria-label="bar"><rect x="180" width="219.43999999999994" y="44" height="33" fill="#dc2626"></rect><rect x="399.43999999999994" width="129.35000000000002" y="44" height="33" fill="#f87171"></rect><rect x="180" width="140.85500000000002" y="81" height="33" fill="#9ca3af"></rect><rect x="180" width="130.97499999999997" y="118" height="33" fill="#9ca3af"></rect><rect x="180" width="97.82500000000005" y="155" height="33" fill="#9ca3af"></rect><rect x="180" width="93.47000000000003" y="192" height="33" fill="#9ca3af"></rect><rect x="180" width="58.04499999999999" y="229" height="33" fill="#9ca3af"></rect><rect x="180" width="55.185" y="266" height="33" fill="#9ca3af"></rect><rect x="180" width="54.73000000000002" y="303" height="33" fill="#9ca3af"></rect></g><g aria-label="rule" stroke="#111827"><line x1="180" x2="180" y1="40" y2="340"></line></g><g aria-label="text" fill="#111827" text-anchor="start" transform="translate(6,16.5)"><text y="0.32em" transform="translate(320.855,81)">2,167</text><text y="0.32em" transform="translate(310.97499999999997,118)">2,015</text><text y="0.32em" transform="translate(277.82500000000005,155)">1,505</text><text y="0.32em" transform="translate(273.47,192)">1,438</text><text y="0.32em" transform="translate(238.045,229)">893</text><text y="0.32em" transform="translate(235.185,266)">849</text><text y="0.32em" transform="translate(234.73000000000002,303)">842</text></g><g aria-label="text" fill="#dc2626" text-anchor="start" font-weight="bold" transform="translate(6,16.5)"><text y="0.32em" transform="translate(528.79,44)">5,366, 2.5× tornadoes</text></g><g aria-label="text" fill="white" font-weight="bold" transform="translate(0,16.5)"><text y="0.32em" transform="translate(289.72,44)">Other states 3,376</text></g><g aria-label="text" fill="#111827" font-weight="bold" transform="translate(0,16.5)"><text y="0.32em" transform="translate(464.115,44)">Arizona 1,990</text></g><g aria-label="rule" stroke="#111827" stroke-dasharray="4,3"><line x1="451.83" x2="451.83" y1="40" y2="340"></line></g><g aria-label="text" fill="#111827" transform="translate(0,-28)"><text y="0.71em" transform="translate(451.83,40)">Tornado + flash flood combined: 4,182 (heat is 1.3×)</text></g></svg>
