<svg class="plot-d6a7b5" fill="currentColor" font-family="system-ui, sans-serif" font-size="10" text-anchor="middle" width="720" height="400" viewBox="0 0 720 400" style="font-size: 12px; font-family: ui-sans-serif, system-ui, sans-serif;" xmlns="http://www.w3.org/2000/svg"><style>:where(.plot-d6a7b5) {
  --plot-background: white;
  display: block;
  height: auto;
  height: intrinsic;
  max-width: 100%;
}
:where(.plot-d6a7b5 text),
:where(.plot-d6a7b5 tspan) {
  white-space: pre;
}</style><g aria-label="y-grid" aria-hidden="true" stroke="currentColor" stroke-opacity="0.1"><line x1="52" x2="704" y1="360" y2="360"></line><line x1="52" x2="704" y1="334.0625" y2="334.0625"></line><line x1="52" x2="704" y1="308.125" y2="308.125"></line><line x1="52" x2="704" y1="282.1875" y2="282.1875"></line><line x1="52" x2="704" y1="256.25" y2="256.25"></line><line x1="52" x2="704" y1="230.3125" y2="230.3125"></line><line x1="52" x2="704" y1="204.375" y2="204.375"></line><line x1="52" x2="704" y1="178.4375" y2="178.4375"></line><line x1="52" x2="704" y1="152.5" y2="152.5"></line><line x1="52" x2="704" y1="126.5625" y2="126.5625"></line><line x1="52" x2="704" y1="100.625" y2="100.625"></line><line x1="52" x2="704" y1="74.6875" y2="74.6875"></line><line x1="52" x2="704" y1="48.75" y2="48.75"></line></g><g aria-label="y-axis tick" aria-hidden="true" fill="none" stroke="currentColor"><path transform="translate(52,360)" d="M0,0L-6,0"></path><path transform="translate(52,334.0625)" d="M0,0L-6,0"></path><path transform="translate(52,308.125)" d="M0,0L-6,0"></path><path transform="translate(52,282.1875)" d="M0,0L-6,0"></path><path transform="translate(52,256.25)" d="M0,0L-6,0"></path><path transform="translate(52,230.3125)" d="M0,0L-6,0"></path><path transform="translate(52,204.375)" d="M0,0L-6,0"></path><path transform="translate(52,178.4375)" d="M0,0L-6,0"></path><path transform="translate(52,152.5)" d="M0,0L-6,0"></path><path transform="translate(52,126.5625)" d="M0,0L-6,0"></path><path transform="translate(52,100.625)" d="M0,0L-6,0"></path><path transform="translate(52,74.6875)" d="M0,0L-6,0"></path><path transform="translate(52,48.75)" d="M0,0L-6,0"></path></g><g aria-label="y-axis tick label" text-anchor="end" font-variant="tabular-nums" transform="translate(-9,0)"><text y="0.32em" transform="translate(52,360)">0</text><text y="0.32em" transform="translate(52,334.0625)">50</text><text y="0.32em" transform="translate(52,308.125)">100</text><text y="0.32em" transform="translate(52,282.1875)">150</text><text y="0.32em" transform="translate(52,256.25)">200</text><text y="0.32em" transform="translate(52,230.3125)">250</text><text y="0.32em" transform="translate(52,204.375)">300</text><text y="0.32em" transform="translate(52,178.4375)">350</text><text y="0.32em" transform="translate(52,152.5)">400</text><text y="0.32em" transform="translate(52,126.5625)">450</text><text y="0.32em" transform="translate(52,100.625)">500</text><text y="0.32em" transform="translate(52,74.6875)">550</text><text y="0.32em" transform="translate(52,48.75)">600</text></g><g aria-label="y-axis label" text-anchor="start" transform="translate(-49,-25)"><text y="0.71em" transform="translate(52,28)">Heat deaths per year (NWS)</text></g><g aria-label="x-axis tick label" transform="translate(10,9)"><text y="0.71em" transform="translate(60,360)">1997</text><text y="0.71em" transform="translate(82,360)"></text><text y="0.71em" transform="translate(104,360)"></text><text y="0.71em" transform="translate(126,360)"></text><text y="0.71em" transform="translate(148,360)">2001</text><text y="0.71em" transform="translate(170,360)"></text><text y="0.71em" transform="translate(192,360)"></text><text y="0.71em" transform="translate(214,360)"></text><text y="0.71em" transform="translate(236,360)">2005</text><text y="0.71em" transform="translate(258,360)"></text><text y="0.71em" transform="translate(280,360)"></text><text y="0.71em" transform="translate(302,360)"></text><text y="0.71em" transform="translate(324,360)">2009</text><text y="0.71em" transform="translate(346,360)"></text><text y="0.71em" transform="translate(368,360)"></text><text y="0.71em" transform="translate(390,360)"></text><text y="0.71em" transform="translate(412,360)">2013</text><text y="0.71em" transform="translate(434,360)"></text><text y="0.71em" transform="translate(456,360)"></text><text y="0.71em" transform="translate(478,360)"></text><text y="0.71em" transform="translate(500,360)">2017</text><text y="0.71em" transform="translate(522,360)"></text><text y="0.71em" transform="translate(544,360)"></text><text y="0.71em" transform="translate(566,360)"></text><text y="0.71em" transform="translate(588,360)">2021</text><text y="0.71em" transform="translate(610,360)"></text><text y="0.71em" transform="translate(632,360)"></text><text y="0.71em" transform="translate(654,360)"></text><text y="0.71em" transform="translate(676,360)">2025</text></g><g aria-label="bar"><rect x="61" width="18" y="318.98125" height="40.01875000000001" fill="#9ca3af"></rect><rect x="61" width="18" y="318.98125" height="0" fill="#dc2626"></rect><rect x="83" width="18" y="271.25625" height="87.74374999999998" fill="#9ca3af"></rect><rect x="83" width="18" y="271.25625" height="0" fill="#dc2626"></rect><rect x="105" width="18" y="100.58749999999999" height="258.4125" fill="#9ca3af"></rect><rect x="105" width="18" y="100.58749999999999" height="0" fill="#dc2626"></rect><rect x="127" width="18" y="279.0375" height="79.96249999999998" fill="#9ca3af"></rect><rect x="127" width="18" y="279.0375" height="0" fill="#dc2626"></rect><rect x="149" width="18" y="274.8875" height="84.11250000000001" fill="#9ca3af"></rect><rect x="149" width="18" y="274.8875" height="0" fill="#dc2626"></rect><rect x="171" width="18" y="274.36875" height="84.63125000000002" fill="#9ca3af"></rect><rect x="171" width="18" y="274.36875" height="0" fill="#dc2626"></rect><rect x="193" width="18" y="342.325" height="16.67500000000001" fill="#9ca3af"></rect><rect x="193" width="18" y="342.325" height="0" fill="#dc2626"></rect><rect x="215" width="18" y="357.8875" height="1.1125000000000114" fill="#9ca3af"></rect><rect x="215" width="18" y="357.8875" height="0" fill="#dc2626"></rect><rect x="237" width="18" y="305.49375" height="53.50625000000002" fill="#9ca3af"></rect><rect x="237" width="18" y="279.0375" height="24.456249999999955" fill="#dc2626"></rect><rect x="259" width="18" y="229.75625000000002" height="129.24374999999998" fill="#9ca3af"></rect><rect x="259" width="18" y="229.75625000000002" height="0" fill="#dc2626"></rect><rect x="281" width="18" y="306.53125" height="52.46875" fill="#9ca3af"></rect><rect x="281" width="18" y="306.53125" height="0" fill="#dc2626"></rect><rect x="303" width="18" y="325.20625" height="33.79374999999999" fill="#9ca3af"></rect><rect x="303" width="18" y="324.16875" height="0" fill="#dc2626"></rect><rect x="325" width="18" y="337.65625" height="21.34375" fill="#9ca3af"></rect><rect x="325" width="18" y="337.65625" height="0" fill="#dc2626"></rect><rect x="347" width="18" y="290.45" height="68.55000000000001" fill="#9ca3af"></rect><rect x="347" width="18" y="289.4125" height="0" fill="#dc2626"></rect><rect x="369" width="18" y="255.69375000000002" height="103.30624999999998" fill="#9ca3af"></rect><rect x="369" width="18" y="254.1375" height="0" fill="#dc2626"></rect><rect x="391" width="18" y="282.15" height="76.85000000000002" fill="#9ca3af"></rect><rect x="391" width="18" y="280.075" height="0.07499999999998863" fill="#dc2626"></rect><rect x="413" width="18" y="316.90625" height="42.09375" fill="#9ca3af"></rect><rect x="413" width="18" y="313.275" height="1.6312500000000227" fill="#dc2626"></rect><rect x="435" width="18" y="351.6625" height="7.337499999999977" fill="#9ca3af"></rect><rect x="435" width="18" y="350.625" height="0" fill="#dc2626"></rect><rect x="457" width="18" y="338.69375" height="20.306249999999977" fill="#9ca3af"></rect><rect x="457" width="18" y="337.65625" height="0" fill="#dc2626"></rect><rect x="479" width="18" y="316.90625" height="42.09375" fill="#9ca3af"></rect><rect x="479" width="18" y="312.2375" height="2.6687499999999886" fill="#dc2626"></rect><rect x="501" width="18" y="306.53125" height="52.46875" fill="#9ca3af"></rect><rect x="501" width="18" y="305.49375" height="0" fill="#dc2626"></rect><rect x="523" width="18" y="305.49375" height="53.50625000000002" fill="#9ca3af"></rect><rect x="523" width="18" y="304.975" height="0" fill="#dc2626"></rect><rect x="545" width="18" y="338.175" height="20.82499999999999" fill="#9ca3af"></rect><rect x="545" width="18" y="263.99375" height="72.18125000000003" fill="#dc2626"></rect><rect x="567" width="18" y="354.25625" height="4.743749999999977" fill="#9ca3af"></rect><rect x="567" width="18" y="179.4375" height="172.81875000000002" fill="#dc2626"></rect><rect x="589" width="18" y="287.85625" height="71.14375000000001" fill="#9ca3af"></rect><rect x="589" width="18" y="166.46875" height="119.38749999999999" fill="#dc2626"></rect><rect x="611" width="18" y="300.825" height="58.17500000000001" fill="#9ca3af"></rect><rect x="611" width="18" y="162.31875000000002" height="136.50624999999997" fill="#dc2626"></rect><rect x="633" width="18" y="305.49375" height="53.50625000000002" fill="#9ca3af"></rect><rect x="633" width="18" y="73.09375" height="230.39999999999998" fill="#dc2626"></rect><rect x="655" width="18" y="307.56875" height="51.43124999999998" fill="#9ca3af"></rect><rect x="655" width="18" y="86.58125000000001" height="218.9875" fill="#dc2626"></rect><rect x="677" width="18" y="335.0625" height="23.9375" fill="#9ca3af"></rect><rect x="677" width="18" y="309.125" height="23.9375" fill="#dc2626"></rect></g><g aria-label="rule" stroke="#111827"><line x1="52" x2="704" y1="360" y2="360"></line></g><g aria-label="rule" stroke="#111827" stroke-width="0.75" transform="translate(10,0)"><line x1="236" x2="236" y1="274.925" y2="211.6375"></line><line x1="566" x2="566" y1="175.325" y2="139.0125"></line><line x1="676" x2="676" y1="305.0125" y2="48.23124999999999"></line></g><g aria-label="text" fill="#111827" text-anchor="end" transform="translate(16,-8)"><text y="0.32em" transform="translate(544,262.99375)">2019: Arizona 143 of 187</text><text y="0.32em" transform="translate(566,131.75)">2020: 13 outside Arizona</text><text y="0.32em" transform="translate(632,72.09375)">2023: Arizona 448 of 555</text><text y="0.32em" transform="translate(676,40.96875)">2025: 100, preliminary</text></g><g aria-label="text" fill="#111827" transform="translate(10,-8)"><text y="0.32em" transform="translate(236,204.375)">2005: Arizona 51</text></g><g aria-label="text" fill="#dc2626" text-anchor="start" font-weight="bold" transform="translate(10,0)"><text y="0.32em" transform="translate(280,116.1875)">Arizona</text></g><g aria-label="text" fill="#9ca3af" text-anchor="start" font-weight="bold" transform="translate(10,0)"><text y="0.32em" transform="translate(280,131.75)">All other states</text></g></svg>
